# xmcd CD database file
#
# Track frame offsets:
#	150
#	12807
#	30881
#	47838
#	62575
#	71873
#	85586
#	105025
#	118012
#	137508
#	154332
#
# Disc length: 2217 seconds
#
# Revision: 0
# Processed by: cddbd v1.5.1PL0 Copyright (c) Steve Scherf et al.
# Submitted via: CDex 1.51
#
DISCID=7e08a70b
DTITLE=H.K. Karjalainen and Austin Mailer - Vaikeuksissa J‰lleen
DYEAR=2003
DGENRE=Country
TTITLE0=Mua ei voi ostaa
TTITLE1=Mik‰ pelottaa
TTITLE2=Palaa sillat
TTITLE3=Kassi kainalossa
TTITLE4=Kaiken sain
TTITLE5=Oulusta etel‰‰n
TTITLE6=Voodoo nainen
TTITLE7=Viel‰ kerran
TTITLE8=J‰i kauan sitten taakse
TTITLE9=Naamiot riisutaan
TTITLE10=Ammukaste
EXTD=YEAR: 2003
EXTT0=
EXTT1=
EXTT2=
EXTT3=
EXTT4=
EXTT5=
EXTT6=
EXTT7=
EXTT8=
EXTT9=
EXTT10=
PLAYORDER=
